<svg width="18" height="18" viewBox="0 0 18 18" fill="none" xmlns="http://www.w3.org/2000/svg">
<path fill-rule="evenodd" clip-rule="evenodd" d="M9.00013 1.70841C7.3893 1.70841 6.08347 3.01425 6.08347 4.62508C6.08347 6.23591 7.3893 7.54175 9.00013 7.54175C10.611 7.54175 11.9168 6.23591 11.9168 4.62508C11.9168 3.01425 10.611 1.70841 9.00013 1.70841ZM4.4168 4.62508C4.4168 2.09378 6.46883 0.041748 9.00013 0.041748C11.5314 0.041748 13.5835 2.09378 13.5835 4.62508C13.5835 7.15639 11.5314 9.20842 9.00013 9.20842C6.46883 9.20842 4.4168 7.15639 4.4168 4.62508Z" fill="#424551"/>
<path fill-rule="evenodd" clip-rule="evenodd" d="M4.08685 11.7084C3.50908 11.7084 3.05749 11.9897 2.87418 12.3939C2.62047 12.9534 2.39072 13.6194 2.3365 14.2511C2.31226 14.5334 2.43 14.7415 2.59224 14.8423C3.44987 15.3751 5.43713 16.2917 9.00013 16.2917C12.5631 16.2917 14.5504 15.3751 15.408 14.8423C15.5703 14.7415 15.688 14.5334 15.6638 14.2511C15.6096 13.6194 15.3798 12.9534 15.1261 12.3939C14.9428 11.9897 14.4912 11.7084 13.9134 11.7084H4.08685ZM1.35632 11.7055C1.86294 10.5885 2.99422 10.0417 4.08685 10.0417H13.9134C15.006 10.0417 16.1373 10.5885 16.6439 11.7055C16.9349 12.3472 17.2472 13.2097 17.3243 14.1085C17.3946 14.9271 17.0544 15.7817 16.2875 16.2581C15.1596 16.9587 12.8665 17.9584 9.00013 17.9584C5.1338 17.9584 2.84072 16.9587 1.71277 16.2581C0.945886 15.7817 0.605686 14.9271 0.67594 14.1085C0.753088 13.2097 1.06534 12.3472 1.35632 11.7055Z" fill="#424551"/>
</svg>
